<svg width="20" height="20" viewBox="0 0 20 20" fill="none" xmlns="http://www.w3.org/2000/svg">
<path d="M7 0C7 0 7 0 7 0H6.19098C6.06539 0 5.94152 0.029242 5.82918 0.0854102L1.74673 2.12663C0.67622 2.66189 0 3.75604 0 4.95291V6.93845C0 7.98561 0.984099 8.75397 2 8.5C3.0159 8.24603 4 9.01439 4 10.0616V16C4 18.2091 5.79086 20 8 20H12C14.2091 20 16 18.2091 16 16V10.0616C16 9.01439 16.9841 8.24603 18 8.5C19.0159 8.75397 20 7.98561 20 6.93845V4.95291C20 3.75604 19.3238 2.66189 18.2533 2.12663L14.1708 0.0854101C14.0585 0.0292419 13.9346 0 13.809 0C13.3622 0 13.0106 0.368612 12.8916 0.799267C12.7546 1.2948 12.4912 1.75139 12.1213 2.12132C11.5587 2.68393 10.7956 3 10 3C9.20435 3 8.44129 2.68393 7.87868 2.12132C7.31607 1.55871 7 0.795649 7 0Z" fill="#631F6A"/>
</svg>
