<svg width="21" height="30" viewBox="0 0 21 30" fill="none" xmlns="http://www.w3.org/2000/svg">
<path d="M17.8685 3.9984H13.6979C12.9443 4.0008 12.9725 5.124 13.6979 5.1174H17.8685V5.6916H13.6979C12.9485 5.685 12.9761 6.8076 13.6979 6.8106H17.8685V7.3974H13.6979C12.9485 7.3974 12.9761 8.5194 13.6979 8.5164H17.8685V9.0756H13.6979C12.9641 9.081 12.9761 10.2042 13.6979 10.2078H17.8685V10.7682H13.6979C12.9641 10.7658 12.9611 11.8872 13.6979 11.8872H17.8685V12.4464H13.6979C12.9641 12.4488 12.9611 13.5714 13.6979 13.566H17.8685V14.139H13.6979C12.9641 14.1324 12.9611 15.2538 13.6979 15.258H17.8685V15.816H13.6979C12.9641 15.8154 12.9761 16.9392 13.6979 16.9356H17.8685V27.831C17.8709 29.4912 20.3927 29.4612 20.3999 27.831V2.334C20.3927 1.5756 19.7699 0.6168 18.7451 0.6138H13.6979C12.9443 0.6144 12.9725 1.7376 13.6979 1.7328L17.8685 1.7466V2.3046H13.6979C12.9455 2.301 12.9737 3.4236 13.6979 3.4242H17.8685V3.9984ZM13.4111 23.3148C13.4087 21.3768 11.3999 19.2924 8.99992 20.6424V13.23L7.44772 1.005C7.41532 0.6816 7.14112 0.6054 6.95692 0.6C6.76672 0.6054 6.38572 0.6816 6.34432 1.005L4.79992 13.23V20.6424C2.39992 19.2924 0.455922 21.39 0.455322 23.2998C0.455922 24.999 1.76392 26.3946 3.53392 26.3904C5.31712 26.3946 6.59992 24.8304 6.59992 23.2998V15.6H7.19992V23.2998C7.19992 25.0134 8.52712 26.2818 10.0019 26.3622C9.97732 27.3018 10.2839 28.6422 10.8611 29.1738C11.5379 29.7978 12.3437 28.9998 12.0131 28.35C11.6939 27.7452 11.3807 27.387 11.6351 26.0664C12.6983 25.5744 13.4087 24.5388 13.4111 23.3148ZM3.60232 24.8394C3.19773 24.8394 2.80972 24.6787 2.52363 24.3926C2.23754 24.1065 2.07682 23.7185 2.07682 23.3139C2.07682 22.9093 2.23754 22.5213 2.52363 22.2352C2.80972 21.9491 3.19773 21.7884 3.60232 21.7884C4.43392 21.7932 5.11132 22.4754 5.11732 23.3148C5.11561 23.717 4.95575 24.1023 4.67227 24.3876C4.3888 24.6729 4.00447 24.8351 3.60232 24.8394ZM8.74492 23.3148C8.74632 22.9123 8.90611 22.5265 9.18973 22.2408C9.47335 21.9552 9.85801 21.7927 10.2605 21.7884C10.6632 21.792 11.0481 21.9544 11.3318 22.2402C11.6155 22.526 11.7749 22.9121 11.7755 23.3148C11.7749 23.7173 11.6154 24.1033 11.3317 24.3888C11.048 24.6743 10.663 24.8362 10.2605 24.8394C9.85813 24.8358 9.47337 24.6737 9.18967 24.3883C8.90596 24.1029 8.74617 23.7172 8.74492 23.3148Z" fill="#631F6A"/>
</svg>
