<svg width="24" height="18" viewBox="0 0 24 18" fill="none" xmlns="http://www.w3.org/2000/svg">
<mask id="path-1-inside-1_168_212" fill="white">
<path d="M0 3C0 2.20435 0.316071 1.44129 0.87868 0.87868C1.44129 0.31607 2.20435 0 3 0H21C21.7956 0 22.5587 0.31607 23.1213 0.87868C23.6839 1.44129 24 2.20435 24 3V15C24 15.7956 23.6839 16.5587 23.1213 17.1213C22.5587 17.6839 21.7956 18 21 18H3C2.20435 18 1.44129 17.6839 0.87868 17.1213C0.316071 16.5587 0 15.7956 0 15V3ZM3 1.5C2.60218 1.5 2.22064 1.65804 1.93934 1.93934C1.65804 2.22064 1.5 2.60218 1.5 3V4.5H22.5V3C22.5 2.60218 22.342 2.22064 22.0607 1.93934C21.7794 1.65804 21.3978 1.5 21 1.5H3ZM22.5 7.5H1.5V15C1.5 15.3978 1.65804 15.7794 1.93934 16.0607C2.22064 16.342 2.60218 16.5 3 16.5H21C21.3978 16.5 21.7794 16.342 22.0607 16.0607C22.342 15.7794 22.5 15.3978 22.5 15V7.5Z"/>
</mask>
<path d="M0 3C0 2.20435 0.316071 1.44129 0.87868 0.87868C1.44129 0.31607 2.20435 0 3 0H21C21.7956 0 22.5587 0.31607 23.1213 0.87868C23.6839 1.44129 24 2.20435 24 3V15C24 15.7956 23.6839 16.5587 23.1213 17.1213C22.5587 17.6839 21.7956 18 21 18H3C2.20435 18 1.44129 17.6839 0.87868 17.1213C0.316071 16.5587 0 15.7956 0 15V3ZM3 1.5C2.60218 1.5 2.22064 1.65804 1.93934 1.93934C1.65804 2.22064 1.5 2.60218 1.5 3V4.5H22.5V3C22.5 2.60218 22.342 2.22064 22.0607 1.93934C21.7794 1.65804 21.3978 1.5 21 1.5H3ZM22.5 7.5H1.5V15C1.5 15.3978 1.65804 15.7794 1.93934 16.0607C2.22064 16.342 2.60218 16.5 3 16.5H21C21.3978 16.5 21.7794 16.342 22.0607 16.0607C22.342 15.7794 22.5 15.3978 22.5 15V7.5Z" fill="#651F6B"/>
<path d="M0 3H-8H0ZM3 0V-8V0ZM21 0V-8V0ZM0 15H-8H0ZM3 1.5V-6.5V1.5ZM1.5 3H-6.5H1.5ZM1.5 4.5H-6.5V12.5H1.5V4.5ZM22.5 4.5V12.5H30.5V4.5H22.5ZM21 1.5V-6.5V1.5ZM22.5 7.5H30.5V-0.5H22.5V7.5ZM1.5 7.5V-0.5H-6.5V7.5H1.5ZM1.5 15H-6.5H1.5ZM8 3C8 4.32608 7.47322 5.59785 6.53553 6.53553L-4.77817 -4.77817C-6.84107 -2.71527 -8 0.0826187 -8 3H8ZM6.53553 6.53553C5.59785 7.47322 4.32608 8 3 8V-8C0.0826194 -8 -2.71527 -6.84108 -4.77817 -4.77817L6.53553 6.53553ZM3 8H21V-8H3V8ZM21 8C19.6739 8 18.4021 7.47322 17.4645 6.53553L28.7782 -4.77817C26.7153 -6.84107 23.9174 -8 21 -8V8ZM17.4645 6.53553C16.5268 5.59785 16 4.32609 16 3H32C32 0.082615 30.8411 -2.71528 28.7782 -4.77817L17.4645 6.53553ZM16 3V15H32V3H16ZM16 15C16 13.6739 16.5268 12.4021 17.4645 11.4645L28.7782 22.7782C30.8411 20.7153 32 17.9174 32 15H16ZM17.4645 11.4645C18.4021 10.5268 19.6739 10 21 10V26C23.9174 26 26.7153 24.8411 28.7782 22.7782L17.4645 11.4645ZM21 10H3V26H21V10ZM3 10C4.32609 10 5.59786 10.5268 6.53553 11.4645L-4.77817 22.7782C-2.71528 24.8411 0.0826145 26 3 26V10ZM6.53553 11.4645C7.47321 12.4021 8 13.6739 8 15H-8C-8 17.9174 -6.84107 20.7153 -4.77817 22.7782L6.53553 11.4645ZM8 15V3H-8V15H8ZM3 -6.5C0.480445 -6.5 -1.93592 -5.49911 -3.71751 -3.71751L7.59619 7.59619C6.37721 8.81518 4.72391 9.5 3 9.5V-6.5ZM-3.71751 -3.71751C-5.49911 -1.93592 -6.5 0.480445 -6.5 3H9.5C9.5 4.72391 8.81518 6.37721 7.59619 7.59619L-3.71751 -3.71751ZM-6.5 3V4.5H9.5V3H-6.5ZM1.5 12.5H22.5V-3.5H1.5V12.5ZM30.5 4.5V3H14.5V4.5H30.5ZM30.5 3C30.5 0.48044 29.4991 -1.93592 27.7175 -3.71751L16.4038 7.59619C15.1848 6.37721 14.5 4.72391 14.5 3H30.5ZM27.7175 -3.71751C25.9359 -5.49911 23.5196 -6.5 21 -6.5V9.5C19.2761 9.5 17.6228 8.81518 16.4038 7.59619L27.7175 -3.71751ZM21 -6.5H3V9.5H21V-6.5ZM22.5 -0.5H1.5V15.5H22.5V-0.5ZM-6.5 7.5V15H9.5V7.5H-6.5ZM-6.5 15C-6.5 17.5196 -5.49911 19.9359 -3.71751 21.7175L7.59619 10.4038C8.81518 11.6228 9.5 13.2761 9.5 15H-6.5ZM-3.71751 21.7175C-1.93592 23.4991 0.48044 24.5 3 24.5V8.5C4.72391 8.5 6.37721 9.18482 7.59619 10.4038L-3.71751 21.7175ZM3 24.5H21V8.5H3V24.5ZM21 24.5C23.5196 24.5 25.9359 23.4991 27.7175 21.7175L16.4038 10.4038C17.6228 9.18482 19.2761 8.5 21 8.5V24.5ZM27.7175 21.7175C29.4991 19.9359 30.5 17.5196 30.5 15H14.5C14.5 13.2761 15.1848 11.6228 16.4038 10.4038L27.7175 21.7175ZM30.5 15V7.5H14.5V15H30.5Z" fill="#651F6B" mask="url(#path-1-inside-1_168_212)"/>
<path d="M6.26777 11.7322L7.06066 10.9393L6.26777 11.7322ZM6.26777 11.7322C6.35191 11.8164 6.42944 11.9059 6.50001 12C6.67038 12.2271 6.80023 12.4809 6.88485 12.75C6.80023 13.0191 6.67038 13.2729 6.50001 13.5C6.42944 13.5941 6.35191 13.6836 6.26777 13.7678M6.26777 11.7322C6.18362 11.6481 6.0941 11.5706 6 11.5C5.77285 11.3296 5.51906 11.1998 5.25 11.1151C4.98094 11.1998 4.72715 11.3296 4.5 11.5C4.4059 11.5706 4.31638 11.6481 4.23223 11.7322C4.14809 11.8164 4.07056 11.9059 3.99999 12C3.82962 12.2271 3.69977 12.4809 3.61515 12.75C3.69977 13.0191 3.82962 13.2729 3.99999 13.5C4.07056 13.5941 4.14809 13.6836 4.23223 13.7678M6.26777 13.7678L7.06066 14.5607L6.26777 13.7678ZM6.26777 13.7678C6.18362 13.8519 6.0941 13.9294 6 14C5.77285 14.1704 5.51906 14.3002 5.25 14.3849M5.25 14.3849L4.23223 13.7678M5.25 14.3849C4.98094 14.3002 4.72715 14.1704 4.5 14C4.4059 13.9294 4.31638 13.8519 4.23223 13.7678M5.25 14.3849L4.23223 13.7678M4.23223 13.7678L3.43934 14.5607L4.23223 13.7678Z" fill="#651F6B" stroke="#651F6B" stroke-width="8"/>
</svg>
