<svg width="137" height="137" viewBox="0 0 137 137" fill="none" xmlns="http://www.w3.org/2000/svg">
<path d="M68.5 128.438C52.6036 128.438 37.3582 122.123 26.1178 110.882C14.8773 99.6417 8.5625 84.3964 8.5625 68.5C8.5625 52.6036 14.8773 37.3582 26.1178 26.1178C37.3582 14.8773 52.6036 8.5625 68.5 8.5625C84.3964 8.5625 99.6417 14.8773 110.882 26.1178C122.123 37.3582 128.438 52.6036 128.438 68.5C128.438 84.3964 122.123 99.6417 110.882 110.882C99.6417 122.123 84.3964 128.438 68.5 128.438ZM68.5 137C86.6673 137 104.091 129.783 116.937 116.937C129.783 104.091 137 86.6673 137 68.5C137 50.3327 129.783 32.9094 116.937 20.0632C104.091 7.21694 86.6673 0 68.5 0C50.3327 0 32.9094 7.21694 20.0632 20.0632C7.21694 32.9094 0 50.3327 0 68.5C0 86.6673 7.21694 104.091 20.0632 116.937C32.9094 129.783 50.3327 137 68.5 137Z" fill="#1F276B"/>
<path d="M93.9307 42.5556C93.8697 42.6148 93.8125 42.6777 93.7595 42.744L64.0219 80.6331L46.1006 62.7032C44.8832 61.5688 43.2731 60.9513 41.6094 60.9806C39.9457 61.01 38.3583 61.684 37.1817 62.8606C36.0051 64.0372 35.3311 65.6245 35.3018 67.2882C35.2724 68.9519 35.89 70.5621 37.0243 71.7795L59.6807 94.4444C60.2911 95.0536 61.0179 95.5337 61.8178 95.856C62.6177 96.1782 63.4743 96.3361 64.3365 96.3201C65.1988 96.3041 66.049 96.1146 66.8364 95.7629C67.6238 95.4113 68.3323 94.9046 68.9197 94.2731L103.101 51.5463C104.265 50.3247 104.901 48.6941 104.873 47.007C104.844 45.32 104.152 43.712 102.947 42.5308C101.743 41.3495 100.121 40.6899 98.434 40.6946C96.7467 40.6993 95.129 41.3678 93.9307 42.5556Z" fill="#1F276B"/>
</svg>
