<svg width="17" height="17" viewBox="0 0 17 17" fill="none" xmlns="http://www.w3.org/2000/svg">
<path d="M8.50008 1.41667C4.59433 1.41667 1.41675 4.59426 1.41675 8.50001C1.41675 12.4058 4.59433 15.5833 8.50008 15.5833C12.4058 15.5833 15.5834 12.4058 15.5834 8.50001C15.5834 4.59426 12.4058 1.41667 8.50008 1.41667ZM8.50008 14.1667C5.37562 14.1667 2.83341 11.6245 2.83341 8.50001C2.83341 5.37555 5.37562 2.83334 8.50008 2.83334C11.6245 2.83334 14.1667 5.37555 14.1667 8.50001C14.1667 11.6245 11.6245 14.1667 8.50008 14.1667Z" fill="#1F276B"/>
<path d="M9.20841 4.95833H7.79175V9.20833H12.0417V7.79166H9.20841V4.95833Z" fill="#1F276B"/>
</svg>
