<svg width="291" height="30" viewBox="0 0 291 30" fill="none" xmlns="http://www.w3.org/2000/svg">
<circle cx="146.062" cy="15.0619" r="14.0619" fill="#641F6B"/>
<path d="M141.264 15.7472L144.006 18.4888L150.86 11.6348" stroke="white" stroke-width="6.2" stroke-linecap="round" stroke-linejoin="round"/>
<circle cx="14.0619" cy="15.0619" r="14.0619" fill="#641F6B"/>
<path d="M9.26392 15.7472L12.0055 18.4888L18.8596 11.6348" stroke="white" stroke-width="6.2" stroke-linecap="round" stroke-linejoin="round"/>
<rect x="27.8584" y="14.2659" width="37.1447" height="1.3266" fill="#641F6B"/>
<circle cx="79.0651" cy="15.0619" r="14.0619" fill="#641F6B"/>
<path d="M74.2671 15.7472L77.0087 18.4888L83.8628 11.6348" stroke="white" stroke-width="6.2" stroke-linecap="round" stroke-linejoin="round"/>
<rect x="92.8616" y="14.2659" width="37.1447" height="1.3266" fill="#641F6B"/>
<circle cx="211.206" cy="15.0619" r="11.0619" stroke="#D1D5DB" stroke-width="6"/>
<rect x="160" y="14.2659" width="37.1447" height="1.3266" fill="#D1D5DB"/>
<circle cx="211.062" cy="14.0619" r="11.0619" stroke="#9CA3AF" stroke-width="6"/>
<circle cx="276.065" cy="14.0619" r="11.0619" stroke="#D1D5DB" stroke-width="6"/>
<circle cx="211.062" cy="14.0619" r="4.77575" fill="#D1D5DB"/>
<rect x="224.858" y="13.2659" width="37.1447" height="1.3266" fill="#D1D5DB"/>
<rect x="224.858" y="13.2659" width="37.1447" height="1.3266" fill="#D1D5DB"/>
</svg>
