<svg width="287" height="30" viewBox="0 0 287 30" fill="none" xmlns="http://www.w3.org/2000/svg">
<circle cx="14.0619" cy="14.0619" r="14.0619" fill="#641F6B"/>
<path d="M9.26392 14.7472L12.0055 17.4888L18.8596 10.6348" stroke="white" stroke-width="6.2" stroke-linecap="round" stroke-linejoin="round"/>
<rect x="27.8586" y="13.2659" width="37.1447" height="1.3266" fill="#641F6B"/>
<circle cx="79.0619" cy="14.0619" r="14.0619" fill="#641F6B"/>
<path d="M74.2639 14.7472L77.0055 17.4888L83.8596 10.6348" stroke="white" stroke-width="6.2" stroke-linecap="round" stroke-linejoin="round"/>
<rect x="92.8586" y="13.2659" width="37.1447" height="1.3266" fill="#641F6B"/>
<rect x="156.804" y="13.2659" width="37.1447" height="1.3266" fill="#D1D5DB"/>
<circle cx="142.062" cy="14.0619" r="11.0619" stroke="#9CA3AF" stroke-width="6"/>
<circle cx="207.065" cy="14.0619" r="11.0619" stroke="#D1D5DB" stroke-width="6"/>
<circle cx="142.062" cy="14.0619" r="4.77575" fill="#D1D5DB"/>
<rect x="155.858" y="13.2659" width="37.1447" height="1.3266" fill="#D1D5DB"/>
<circle cx="142.062" cy="14.0619" r="11.0619" stroke="#641F6B" stroke-width="6"/>
<circle cx="142.062" cy="14.0619" r="4.77575" fill="#641F6B"/>
<rect x="155.859" y="13.2659" width="37.1447" height="1.3266" fill="#D1D5DB"/>
<circle cx="207.062" cy="15.0619" r="11.0619" stroke="#9CA3AF" stroke-width="6"/>
<circle cx="272.065" cy="15.0619" r="11.0619" stroke="#D1D5DB" stroke-width="6"/>
<circle cx="207.062" cy="15.0619" r="4.77575" fill="#D1D5DB"/>
<rect x="220.858" y="14.2659" width="37.1447" height="1.3266" fill="#D1D5DB"/>
<rect x="220.858" y="14.2659" width="37.1447" height="1.3266" fill="#D1D5DB"/>
</svg>
