<svg width="293" height="30" viewBox="0 0 293 30" fill="none" xmlns="http://www.w3.org/2000/svg">
<circle cx="14.0619" cy="15.0619" r="11.0619" stroke="#641F6B" stroke-width="6"/>
<circle cx="14.062" cy="15.0619" r="4.77575" fill="#641F6B"/>
<rect x="27.8585" y="14.2659" width="37.1447" height="1.3266" fill="#D1D5DB"/>
<circle cx="213.068" cy="15.0619" r="11.0619" stroke="#D1D5DB" stroke-width="6"/>
<rect x="161.862" y="14.2659" width="37.1447" height="1.3266" fill="#D1D5DB"/>
<circle cx="278.065" cy="14.0619" r="11.0619" stroke="#D1D5DB" stroke-width="6"/>
<path d="M158.624 14.0619C158.624 20.1712 153.671 25.1238 147.562 25.1238C141.453 25.1238 136.5 20.1712 136.5 14.0619C136.5 7.95259 141.453 3 147.562 3C153.671 3 158.624 7.95259 158.624 14.0619Z" stroke="#D1D5DB" stroke-width="6"/>
<rect x="226.858" y="13.2659" width="37.1447" height="1.3266" fill="#D1D5DB"/>
<circle cx="81.0619" cy="15.0619" r="11.0619" stroke="#9CA3AF" stroke-width="6"/>
<circle cx="81.0619" cy="15.0619" r="4.77575" fill="#D1D5DB"/>
<rect x="94.8585" y="14.2659" width="37.1447" height="1.3266" fill="#D1D5DB"/>
</svg>
