<svg width="86" height="27" viewBox="0 0 86 27" fill="none" xmlns="http://www.w3.org/2000/svg">
<path d="M20.0127 9.074C20.0887 9.074 20.1547 9.104 20.2107 9.164L20.7687 9.77C20.4167 10.194 19.9847 10.522 19.4727 10.754C18.9607 10.982 18.3487 11.096 17.6367 11.096C17.0047 11.096 16.4327 10.988 15.9207 10.772C15.4127 10.552 14.9787 10.248 14.6187 9.86C14.2587 9.468 13.9807 9.002 13.7847 8.462C13.5927 7.922 13.4967 7.328 13.4967 6.68C13.4967 6.032 13.5987 5.438 13.8027 4.898C14.0107 4.354 14.3007 3.888 14.6727 3.5C15.0487 3.108 15.4967 2.804 16.0167 2.588C16.5407 2.372 17.1167 2.264 17.7447 2.264C18.3687 2.264 18.9187 2.366 19.3947 2.57C19.8747 2.77 20.2907 3.038 20.6427 3.374L20.1807 4.028C20.1487 4.072 20.1107 4.11 20.0667 4.142C20.0227 4.174 19.9627 4.19 19.8867 4.19C19.8067 4.19 19.7147 4.154 19.6107 4.082C19.5107 4.006 19.3807 3.924 19.2207 3.836C19.0647 3.744 18.8667 3.662 18.6267 3.59C18.3907 3.514 18.0947 3.476 17.7387 3.476C17.3267 3.476 16.9487 3.548 16.6047 3.692C16.2607 3.836 15.9647 4.046 15.7167 4.322C15.4687 4.598 15.2747 4.934 15.1347 5.33C14.9987 5.726 14.9307 6.176 14.9307 6.68C14.9307 7.188 15.0027 7.642 15.1467 8.042C15.2907 8.438 15.4887 8.774 15.7407 9.05C15.9927 9.322 16.2887 9.53 16.6287 9.674C16.9687 9.818 17.3347 9.89 17.7267 9.89C17.9667 9.89 18.1807 9.878 18.3687 9.854C18.5607 9.826 18.7367 9.784 18.8967 9.728C19.0567 9.668 19.2067 9.594 19.3467 9.506C19.4907 9.418 19.6327 9.31 19.7727 9.182C19.8527 9.11 19.9327 9.074 20.0127 9.074ZM25.0174 8.324C24.5574 8.34 24.1694 8.378 23.8534 8.438C23.5374 8.494 23.2814 8.568 23.0854 8.66C22.8894 8.748 22.7474 8.854 22.6594 8.978C22.5754 9.102 22.5334 9.238 22.5334 9.386C22.5334 9.53 22.5554 9.654 22.5994 9.758C22.6474 9.858 22.7114 9.942 22.7914 10.01C22.8754 10.074 22.9714 10.122 23.0794 10.154C23.1914 10.182 23.3134 10.196 23.4454 10.196C23.7814 10.196 24.0694 10.134 24.3094 10.01C24.5534 9.882 24.7894 9.698 25.0174 9.458V8.324ZM21.5974 5.732C22.2894 5.088 23.1134 4.766 24.0694 4.766C24.4214 4.766 24.7334 4.824 25.0054 4.94C25.2814 5.052 25.5114 5.212 25.6954 5.42C25.8834 5.628 26.0254 5.876 26.1214 6.164C26.2214 6.448 26.2714 6.764 26.2714 7.112V11H25.6954C25.5714 11 25.4774 10.982 25.4134 10.946C25.3494 10.906 25.2954 10.828 25.2514 10.712L25.1254 10.214C24.9694 10.354 24.8154 10.48 24.6634 10.592C24.5114 10.7 24.3534 10.792 24.1894 10.868C24.0294 10.944 23.8554 11 23.6674 11.036C23.4834 11.076 23.2794 11.096 23.0554 11.096C22.8074 11.096 22.5754 11.062 22.3594 10.994C22.1474 10.926 21.9634 10.824 21.8074 10.688C21.6514 10.548 21.5274 10.376 21.4354 10.172C21.3474 9.968 21.3034 9.728 21.3034 9.452C21.3034 9.216 21.3654 8.986 21.4894 8.762C21.6174 8.538 21.8254 8.338 22.1134 8.162C22.4054 7.982 22.7874 7.834 23.2594 7.718C23.7354 7.602 24.3214 7.536 25.0174 7.52V7.112C25.0174 6.672 24.9234 6.344 24.7354 6.128C24.5474 5.912 24.2714 5.804 23.9074 5.804C23.6594 5.804 23.4514 5.836 23.2834 5.9C23.1154 5.96 22.9694 6.026 22.8454 6.098C22.7214 6.17 22.6114 6.238 22.5154 6.302C22.4194 6.362 22.3174 6.392 22.2094 6.392C22.1214 6.392 22.0454 6.37 21.9814 6.326C21.9214 6.278 21.8714 6.22 21.8314 6.152L21.5974 5.732ZM29.1026 2.12V11H27.8126V2.12H29.1026ZM35.0268 6.08C34.9868 6.132 34.9488 6.172 34.9128 6.2C34.8768 6.228 34.8248 6.242 34.7568 6.242C34.6888 6.242 34.6168 6.218 34.5408 6.17C34.4688 6.122 34.3808 6.07 34.2768 6.014C34.1768 5.954 34.0548 5.9 33.9108 5.852C33.7668 5.804 33.5868 5.78 33.3708 5.78C33.0908 5.78 32.8448 5.83 32.6328 5.93C32.4248 6.03 32.2488 6.174 32.1048 6.362C31.9648 6.546 31.8588 6.772 31.7868 7.04C31.7188 7.304 31.6848 7.602 31.6848 7.934C31.6848 8.278 31.7228 8.584 31.7988 8.852C31.8748 9.12 31.9828 9.346 32.1228 9.53C32.2668 9.714 32.4388 9.854 32.6388 9.95C32.8428 10.046 33.0708 10.094 33.3228 10.094C33.5708 10.094 33.7728 10.064 33.9288 10.004C34.0848 9.944 34.2148 9.878 34.3188 9.806C34.4228 9.734 34.5108 9.668 34.5828 9.608C34.6588 9.548 34.7388 9.518 34.8228 9.518C34.9268 9.518 35.0068 9.558 35.0628 9.638L35.4288 10.112C35.2808 10.292 35.1168 10.444 34.9368 10.568C34.7568 10.692 34.5668 10.794 34.3668 10.874C34.1668 10.95 33.9588 11.004 33.7428 11.036C33.5268 11.072 33.3088 11.09 33.0888 11.09C32.7088 11.09 32.3528 11.02 32.0208 10.88C31.6928 10.736 31.4048 10.53 31.1568 10.262C30.9128 9.99 30.7188 9.66 30.5748 9.272C30.4348 8.88 30.3648 8.434 30.3648 7.934C30.3648 7.482 30.4288 7.064 30.5568 6.68C30.6848 6.292 30.8708 5.958 31.1148 5.678C31.3628 5.398 31.6688 5.18 32.0328 5.024C32.3968 4.864 32.8168 4.784 33.2928 4.784C33.7368 4.784 34.1268 4.856 34.4628 5C34.8028 5.144 35.1048 5.348 35.3688 5.612L35.0268 6.08ZM41.6325 4.88V11H40.8525C40.6805 11 40.5705 10.918 40.5225 10.754L40.4265 10.184C40.2985 10.32 40.1625 10.444 40.0185 10.556C39.8785 10.668 39.7285 10.764 39.5685 10.844C39.4085 10.924 39.2365 10.986 39.0525 11.03C38.8725 11.074 38.6785 11.096 38.4705 11.096C38.1345 11.096 37.8385 11.04 37.5825 10.928C37.3265 10.816 37.1105 10.658 36.9345 10.454C36.7625 10.25 36.6325 10.006 36.5445 9.722C36.4565 9.434 36.4125 9.118 36.4125 8.774V4.88H37.7025V8.774C37.7025 9.186 37.7965 9.506 37.9845 9.734C38.1765 9.962 38.4665 10.076 38.8545 10.076C39.1385 10.076 39.4025 10.012 39.6465 9.884C39.8945 9.752 40.1265 9.572 40.3425 9.344V4.88H41.6325ZM44.519 2.12V11H43.229V2.12H44.519ZM49.3873 8.324C48.9273 8.34 48.5393 8.378 48.2233 8.438C47.9073 8.494 47.6513 8.568 47.4553 8.66C47.2593 8.748 47.1173 8.854 47.0293 8.978C46.9453 9.102 46.9033 9.238 46.9033 9.386C46.9033 9.53 46.9253 9.654 46.9693 9.758C47.0173 9.858 47.0813 9.942 47.1613 10.01C47.2453 10.074 47.3413 10.122 47.4493 10.154C47.5613 10.182 47.6833 10.196 47.8153 10.196C48.1513 10.196 48.4393 10.134 48.6793 10.01C48.9233 9.882 49.1593 9.698 49.3873 9.458V8.324ZM45.9673 5.732C46.6593 5.088 47.4833 4.766 48.4393 4.766C48.7913 4.766 49.1033 4.824 49.3753 4.94C49.6513 5.052 49.8813 5.212 50.0653 5.42C50.2533 5.628 50.3953 5.876 50.4913 6.164C50.5913 6.448 50.6413 6.764 50.6413 7.112V11H50.0653C49.9413 11 49.8473 10.982 49.7833 10.946C49.7193 10.906 49.6653 10.828 49.6213 10.712L49.4953 10.214C49.3393 10.354 49.1853 10.48 49.0333 10.592C48.8813 10.7 48.7233 10.792 48.5593 10.868C48.3993 10.944 48.2253 11 48.0373 11.036C47.8533 11.076 47.6493 11.096 47.4253 11.096C47.1773 11.096 46.9453 11.062 46.7293 10.994C46.5173 10.926 46.3333 10.824 46.1773 10.688C46.0213 10.548 45.8973 10.376 45.8053 10.172C45.7173 9.968 45.6733 9.728 45.6733 9.452C45.6733 9.216 45.7353 8.986 45.8593 8.762C45.9873 8.538 46.1953 8.338 46.4833 8.162C46.7753 7.982 47.1573 7.834 47.6293 7.718C48.1053 7.602 48.6913 7.536 49.3873 7.52V7.112C49.3873 6.672 49.2933 6.344 49.1053 6.128C48.9173 5.912 48.6413 5.804 48.2773 5.804C48.0293 5.804 47.8213 5.836 47.6533 5.9C47.4853 5.96 47.3393 6.026 47.2153 6.098C47.0913 6.17 46.9813 6.238 46.8853 6.302C46.7893 6.362 46.6873 6.392 46.5793 6.392C46.4913 6.392 46.4153 6.37 46.3513 6.326C46.2913 6.278 46.2413 6.22 46.2013 6.152L45.9673 5.732ZM54.0384 11.096C53.5304 11.096 53.1384 10.954 52.8624 10.67C52.5904 10.382 52.4544 9.978 52.4544 9.458V5.894H51.7824C51.7104 5.894 51.6484 5.872 51.5964 5.828C51.5444 5.78 51.5184 5.71 51.5184 5.618V5.096L52.5084 4.952L52.7904 3.182C52.8104 3.114 52.8444 3.06 52.8924 3.02C52.9404 2.976 53.0044 2.954 53.0844 2.954H53.7444V4.964H55.4424V5.894H53.7444V9.368C53.7444 9.588 53.7984 9.756 53.9064 9.872C54.0144 9.988 54.1584 10.046 54.3384 10.046C54.4384 10.046 54.5244 10.034 54.5964 10.01C54.6684 9.982 54.7304 9.954 54.7824 9.926C54.8344 9.894 54.8784 9.866 54.9144 9.842C54.9544 9.814 54.9924 9.8 55.0284 9.8C55.1004 9.8 55.1584 9.84 55.2024 9.92L55.5864 10.55C55.3864 10.726 55.1504 10.862 54.8784 10.958C54.6064 11.05 54.3264 11.096 54.0384 11.096ZM60.4323 7.25C60.4323 7.034 60.4003 6.834 60.3363 6.65C60.2763 6.462 60.1863 6.3 60.0663 6.164C59.9463 6.024 59.7963 5.916 59.6163 5.84C59.4403 5.76 59.2363 5.72 59.0043 5.72C58.5363 5.72 58.1683 5.854 57.9003 6.122C57.6323 6.39 57.4623 6.766 57.3903 7.25H60.4323ZM57.3543 8.042C57.3703 8.39 57.4243 8.692 57.5163 8.948C57.6083 9.2 57.7303 9.41 57.8823 9.578C58.0383 9.746 58.2223 9.872 58.4343 9.956C58.6503 10.036 58.8903 10.076 59.1543 10.076C59.4063 10.076 59.6243 10.048 59.8083 9.992C59.9923 9.932 60.1523 9.868 60.2883 9.8C60.4243 9.728 60.5403 9.664 60.6363 9.608C60.7323 9.548 60.8203 9.518 60.9003 9.518C61.0043 9.518 61.0843 9.558 61.1403 9.638L61.5063 10.112C61.3543 10.292 61.1823 10.444 60.9903 10.568C60.7983 10.692 60.5943 10.794 60.3783 10.874C60.1623 10.95 59.9403 11.004 59.7123 11.036C59.4843 11.072 59.2623 11.09 59.0463 11.09C58.6223 11.09 58.2283 11.02 57.8643 10.88C57.5043 10.736 57.1903 10.526 56.9223 10.25C56.6583 9.974 56.4503 9.632 56.2983 9.224C56.1503 8.816 56.0763 8.346 56.0763 7.814C56.0763 7.39 56.1423 6.994 56.2743 6.626C56.4103 6.258 56.6023 5.938 56.8503 5.666C57.1023 5.394 57.4063 5.18 57.7623 5.024C58.1223 4.864 58.5283 4.784 58.9803 4.784C59.3563 4.784 59.7043 4.846 60.0243 4.97C60.3443 5.09 60.6203 5.268 60.8523 5.504C61.0843 5.74 61.2643 6.03 61.3923 6.374C61.5243 6.714 61.5903 7.102 61.5903 7.538C61.5903 7.738 61.5683 7.872 61.5243 7.94C61.4803 8.008 61.4003 8.042 61.2843 8.042H57.3543ZM11.8504 20.074C11.9264 20.074 11.9924 20.104 12.0484 20.164L12.6064 20.77C12.2544 21.194 11.8224 21.522 11.3104 21.754C10.7984 21.982 10.1864 22.096 9.47442 22.096C8.84242 22.096 8.27042 21.988 7.75842 21.772C7.25042 21.552 6.81642 21.248 6.45642 20.86C6.09642 20.468 5.81842 20.002 5.62242 19.462C5.43042 18.922 5.33442 18.328 5.33442 17.68C5.33442 17.032 5.43642 16.438 5.64042 15.898C5.84842 15.354 6.13842 14.888 6.51042 14.5C6.88642 14.108 7.33442 13.804 7.85442 13.588C8.37842 13.372 8.95442 13.264 9.58242 13.264C10.2064 13.264 10.7564 13.366 11.2324 13.57C11.7124 13.77 12.1284 14.038 12.4804 14.374L12.0184 15.028C11.9864 15.072 11.9484 15.11 11.9044 15.142C11.8604 15.174 11.8004 15.19 11.7244 15.19C11.6444 15.19 11.5524 15.154 11.4484 15.082C11.3484 15.006 11.2184 14.924 11.0584 14.836C10.9024 14.744 10.7044 14.662 10.4644 14.59C10.2284 14.514 9.93242 14.476 9.57642 14.476C9.16442 14.476 8.78642 14.548 8.44242 14.692C8.09842 14.836 7.80242 15.046 7.55442 15.322C7.30642 15.598 7.11242 15.934 6.97242 16.33C6.83642 16.726 6.76842 17.176 6.76842 17.68C6.76842 18.188 6.84042 18.642 6.98442 19.042C7.12842 19.438 7.32642 19.774 7.57842 20.05C7.83042 20.322 8.12642 20.53 8.46642 20.674C8.80642 20.818 9.17242 20.89 9.56442 20.89C9.80442 20.89 10.0184 20.878 10.2064 20.854C10.3984 20.826 10.5744 20.784 10.7344 20.728C10.8944 20.668 11.0444 20.594 11.1844 20.506C11.3284 20.418 11.4704 20.31 11.6104 20.182C11.6904 20.11 11.7704 20.074 11.8504 20.074ZM14.7797 17.014C14.9717 16.626 15.2037 16.322 15.4757 16.102C15.7477 15.878 16.0737 15.766 16.4537 15.766C16.5857 15.766 16.7097 15.782 16.8257 15.814C16.9417 15.842 17.0457 15.886 17.1377 15.946L17.0477 16.918C17.0317 16.986 17.0057 17.034 16.9697 17.062C16.9377 17.086 16.8937 17.098 16.8377 17.098C16.7777 17.098 16.6917 17.088 16.5797 17.068C16.4677 17.044 16.3497 17.032 16.2257 17.032C16.0457 17.032 15.8857 17.058 15.7457 17.11C15.6097 17.162 15.4857 17.238 15.3737 17.338C15.2657 17.438 15.1697 17.56 15.0857 17.704C15.0017 17.848 14.9237 18.012 14.8517 18.196V22H13.5617V15.88H14.3117C14.4477 15.88 14.5417 15.906 14.5937 15.958C14.6457 16.006 14.6817 16.092 14.7017 16.216L14.7797 17.014ZM21.8005 18.25C21.8005 18.034 21.7685 17.834 21.7045 17.65C21.6445 17.462 21.5545 17.3 21.4345 17.164C21.3145 17.024 21.1645 16.916 20.9845 16.84C20.8085 16.76 20.6045 16.72 20.3725 16.72C19.9045 16.72 19.5365 16.854 19.2685 17.122C19.0005 17.39 18.8305 17.766 18.7585 18.25H21.8005ZM18.7225 19.042C18.7385 19.39 18.7925 19.692 18.8845 19.948C18.9765 20.2 19.0985 20.41 19.2505 20.578C19.4065 20.746 19.5905 20.872 19.8025 20.956C20.0185 21.036 20.2585 21.076 20.5225 21.076C20.7745 21.076 20.9925 21.048 21.1765 20.992C21.3605 20.932 21.5205 20.868 21.6565 20.8C21.7925 20.728 21.9085 20.664 22.0045 20.608C22.1005 20.548 22.1885 20.518 22.2685 20.518C22.3725 20.518 22.4525 20.558 22.5085 20.638L22.8745 21.112C22.7225 21.292 22.5505 21.444 22.3585 21.568C22.1665 21.692 21.9625 21.794 21.7465 21.874C21.5305 21.95 21.3085 22.004 21.0805 22.036C20.8525 22.072 20.6305 22.09 20.4145 22.09C19.9905 22.09 19.5965 22.02 19.2325 21.88C18.8725 21.736 18.5585 21.526 18.2905 21.25C18.0265 20.974 17.8185 20.632 17.6665 20.224C17.5185 19.816 17.4445 19.346 17.4445 18.814C17.4445 18.39 17.5105 17.994 17.6425 17.626C17.7785 17.258 17.9705 16.938 18.2185 16.666C18.4705 16.394 18.7745 16.18 19.1305 16.024C19.4905 15.864 19.8965 15.784 20.3485 15.784C20.7245 15.784 21.0725 15.846 21.3925 15.97C21.7125 16.09 21.9885 16.268 22.2205 16.504C22.4525 16.74 22.6325 17.03 22.7605 17.374C22.8925 17.714 22.9585 18.102 22.9585 18.538C22.9585 18.738 22.9365 18.872 22.8925 18.94C22.8485 19.008 22.7685 19.042 22.6525 19.042H18.7225ZM28.0735 17.386C27.8935 17.154 27.6955 16.992 27.4795 16.9C27.2635 16.808 27.0295 16.762 26.7775 16.762C26.2735 16.762 25.8795 16.948 25.5955 17.32C25.3115 17.688 25.1695 18.234 25.1695 18.958C25.1695 19.334 25.2015 19.656 25.2655 19.924C25.3295 20.188 25.4215 20.404 25.5415 20.572C25.6615 20.74 25.8075 20.862 25.9795 20.938C26.1515 21.014 26.3455 21.052 26.5615 21.052C26.8895 21.052 27.1715 20.982 27.4075 20.842C27.6475 20.698 27.8695 20.496 28.0735 20.236V17.386ZM29.3635 13.12V22H28.5835C28.4115 22 28.3015 21.918 28.2535 21.754L28.1395 21.088C27.8835 21.388 27.5915 21.63 27.2635 21.814C26.9395 21.998 26.5615 22.09 26.1295 22.09C25.7855 22.09 25.4735 22.022 25.1935 21.886C24.9135 21.746 24.6735 21.544 24.4735 21.28C24.2735 21.016 24.1175 20.69 24.0055 20.302C23.8975 19.91 23.8435 19.462 23.8435 18.958C23.8435 18.502 23.9035 18.08 24.0235 17.692C24.1475 17.304 24.3235 16.968 24.5515 16.684C24.7795 16.396 25.0555 16.172 25.3795 16.012C25.7075 15.848 26.0735 15.766 26.4775 15.766C26.8375 15.766 27.1435 15.824 27.3955 15.94C27.6475 16.052 27.8735 16.21 28.0735 16.414V13.12H29.3635ZM32.2909 15.88V22H31.0009V15.88H32.2909ZM32.5069 14.032C32.5069 14.148 32.4829 14.258 32.4349 14.362C32.3909 14.466 32.3289 14.558 32.2489 14.638C32.1689 14.714 32.0749 14.776 31.9669 14.824C31.8629 14.868 31.7509 14.89 31.6309 14.89C31.5149 14.89 31.4049 14.868 31.3009 14.824C31.2009 14.776 31.1129 14.714 31.0369 14.638C30.9609 14.558 30.8989 14.466 30.8509 14.362C30.8069 14.258 30.7849 14.148 30.7849 14.032C30.7849 13.912 30.8069 13.8 30.8509 13.696C30.8989 13.592 30.9609 13.502 31.0369 13.426C31.1129 13.346 31.2009 13.284 31.3009 13.24C31.4049 13.192 31.5149 13.168 31.6309 13.168C31.7509 13.168 31.8629 13.192 31.9669 13.24C32.0749 13.284 32.1689 13.346 32.2489 13.426C32.3289 13.502 32.3909 13.592 32.4349 13.696C32.4829 13.8 32.5069 13.912 32.5069 14.032ZM35.8798 22.096C35.3718 22.096 34.9798 21.954 34.7038 21.67C34.4318 21.382 34.2958 20.978 34.2958 20.458V16.894H33.6238C33.5518 16.894 33.4898 16.872 33.4378 16.828C33.3858 16.78 33.3598 16.71 33.3598 16.618V16.096L34.3498 15.952L34.6318 14.182C34.6518 14.114 34.6858 14.06 34.7338 14.02C34.7818 13.976 34.8458 13.954 34.9258 13.954H35.5858V15.964H37.2838V16.894H35.5858V20.368C35.5858 20.588 35.6398 20.756 35.7478 20.872C35.8558 20.988 35.9998 21.046 36.1798 21.046C36.2798 21.046 36.3658 21.034 36.4378 21.01C36.5098 20.982 36.5718 20.954 36.6238 20.926C36.6758 20.894 36.7198 20.866 36.7558 20.842C36.7958 20.814 36.8338 20.8 36.8698 20.8C36.9418 20.8 36.9998 20.84 37.0438 20.92L37.4278 21.55C37.2278 21.726 36.9918 21.862 36.7198 21.958C36.4478 22.05 36.1678 22.096 35.8798 22.096ZM46.0589 14.836C46.0149 14.908 45.9689 14.962 45.9209 14.998C45.8729 15.03 45.8129 15.046 45.7409 15.046C45.6649 15.046 45.5789 15.014 45.4829 14.95C45.3909 14.886 45.2749 14.816 45.1349 14.74C44.9989 14.66 44.8369 14.588 44.6489 14.524C44.4609 14.456 44.2369 14.422 43.9769 14.422C43.7369 14.422 43.5249 14.452 43.3409 14.512C43.1609 14.572 43.0089 14.656 42.8849 14.764C42.7609 14.872 42.6669 15 42.6029 15.148C42.5429 15.292 42.5129 15.45 42.5129 15.622C42.5129 15.842 42.5709 16.026 42.6869 16.174C42.8029 16.318 42.9549 16.442 43.1429 16.546C43.3349 16.65 43.5529 16.742 43.7969 16.822C44.0409 16.898 44.2889 16.98 44.5409 17.068C44.7969 17.156 45.0469 17.256 45.2909 17.368C45.5349 17.48 45.7509 17.622 45.9389 17.794C46.1309 17.966 46.2849 18.176 46.4009 18.424C46.5169 18.672 46.5749 18.974 46.5749 19.33C46.5749 19.714 46.5089 20.074 46.3769 20.41C46.2449 20.746 46.0529 21.04 45.8009 21.292C45.5529 21.54 45.2449 21.736 44.8769 21.88C44.5129 22.024 44.0969 22.096 43.6289 22.096C43.3529 22.096 43.0829 22.068 42.8189 22.012C42.5589 21.96 42.3089 21.886 42.0689 21.79C41.8329 21.69 41.6109 21.57 41.4029 21.43C41.1949 21.29 41.0089 21.134 40.8449 20.962L41.2529 20.29C41.2889 20.234 41.3349 20.19 41.3909 20.158C41.4469 20.126 41.5089 20.11 41.5769 20.11C41.6689 20.11 41.7709 20.154 41.8829 20.242C41.9949 20.326 42.1289 20.42 42.2849 20.524C42.4449 20.624 42.6369 20.718 42.8609 20.806C43.0849 20.89 43.3529 20.932 43.6649 20.932C44.1729 20.932 44.5649 20.808 44.8409 20.56C45.1209 20.312 45.2609 19.97 45.2609 19.534C45.2609 19.29 45.2029 19.092 45.0869 18.94C44.9709 18.784 44.8169 18.654 44.6249 18.55C44.4369 18.446 44.2209 18.358 43.9769 18.286C43.7329 18.214 43.4849 18.138 43.2329 18.058C42.9809 17.974 42.7329 17.878 42.4889 17.77C42.2449 17.658 42.0269 17.514 41.8349 17.338C41.6469 17.158 41.4949 16.938 41.3789 16.678C41.2629 16.414 41.2049 16.086 41.2049 15.694C41.2049 15.382 41.2649 15.08 41.3849 14.788C41.5089 14.496 41.6869 14.238 41.9189 14.014C42.1549 13.786 42.4449 13.604 42.7889 13.468C43.1329 13.332 43.5249 13.264 43.9649 13.264C44.4609 13.264 44.9149 13.342 45.3269 13.498C45.7429 13.654 46.1009 13.876 46.4009 14.164L46.0589 14.836ZM52.1602 17.08C52.1202 17.132 52.0822 17.172 52.0462 17.2C52.0102 17.228 51.9582 17.242 51.8902 17.242C51.8222 17.242 51.7502 17.218 51.6742 17.17C51.6022 17.122 51.5142 17.07 51.4102 17.014C51.3102 16.954 51.1882 16.9 51.0442 16.852C50.9002 16.804 50.7202 16.78 50.5042 16.78C50.2242 16.78 49.9782 16.83 49.7662 16.93C49.5582 17.03 49.3822 17.174 49.2382 17.362C49.0982 17.546 48.9922 17.772 48.9202 18.04C48.8522 18.304 48.8182 18.602 48.8182 18.934C48.8182 19.278 48.8562 19.584 48.9322 19.852C49.0082 20.12 49.1162 20.346 49.2562 20.53C49.4002 20.714 49.5722 20.854 49.7722 20.95C49.9762 21.046 50.2042 21.094 50.4562 21.094C50.7042 21.094 50.9062 21.064 51.0622 21.004C51.2182 20.944 51.3482 20.878 51.4522 20.806C51.5562 20.734 51.6442 20.668 51.7162 20.608C51.7922 20.548 51.8722 20.518 51.9562 20.518C52.0602 20.518 52.1402 20.558 52.1962 20.638L52.5622 21.112C52.4142 21.292 52.2502 21.444 52.0702 21.568C51.8902 21.692 51.7002 21.794 51.5002 21.874C51.3002 21.95 51.0922 22.004 50.8762 22.036C50.6602 22.072 50.4422 22.09 50.2222 22.09C49.8422 22.09 49.4862 22.02 49.1542 21.88C48.8262 21.736 48.5382 21.53 48.2902 21.262C48.0462 20.99 47.8522 20.66 47.7082 20.272C47.5682 19.88 47.4982 19.434 47.4982 18.934C47.4982 18.482 47.5622 18.064 47.6902 17.68C47.8182 17.292 48.0042 16.958 48.2482 16.678C48.4962 16.398 48.8022 16.18 49.1662 16.024C49.5302 15.864 49.9502 15.784 50.4262 15.784C50.8702 15.784 51.2602 15.856 51.5962 16C51.9362 16.144 52.2382 16.348 52.5022 16.612L52.1602 17.08ZM56.1464 15.784C56.5984 15.784 57.0064 15.858 57.3704 16.006C57.7384 16.154 58.0504 16.364 58.3064 16.636C58.5664 16.908 58.7664 17.238 58.9064 17.626C59.0464 18.014 59.1164 18.45 59.1164 18.934C59.1164 19.418 59.0464 19.854 58.9064 20.242C58.7664 20.63 58.5664 20.962 58.3064 21.238C58.0504 21.51 57.7384 21.72 57.3704 21.868C57.0064 22.016 56.5984 22.09 56.1464 22.09C55.6904 22.09 55.2784 22.016 54.9104 21.868C54.5464 21.72 54.2344 21.51 53.9744 21.238C53.7144 20.962 53.5144 20.63 53.3744 20.242C53.2344 19.854 53.1644 19.418 53.1644 18.934C53.1644 18.45 53.2344 18.014 53.3744 17.626C53.5144 17.238 53.7144 16.908 53.9744 16.636C54.2344 16.364 54.5464 16.154 54.9104 16.006C55.2784 15.858 55.6904 15.784 56.1464 15.784ZM56.1464 21.082C56.6984 21.082 57.1084 20.898 57.3764 20.53C57.6484 20.158 57.7844 19.628 57.7844 18.94C57.7844 18.252 57.6484 17.722 57.3764 17.35C57.1084 16.974 56.6984 16.786 56.1464 16.786C55.5864 16.786 55.1704 16.974 54.8984 17.35C54.6264 17.722 54.4904 18.252 54.4904 18.94C54.4904 19.628 54.6264 20.158 54.8984 20.53C55.1704 20.898 55.5864 21.082 56.1464 21.082ZM61.5798 17.014C61.7718 16.626 62.0038 16.322 62.2758 16.102C62.5478 15.878 62.8738 15.766 63.2538 15.766C63.3858 15.766 63.5098 15.782 63.6258 15.814C63.7418 15.842 63.8458 15.886 63.9378 15.946L63.8478 16.918C63.8318 16.986 63.8058 17.034 63.7698 17.062C63.7378 17.086 63.6938 17.098 63.6378 17.098C63.5778 17.098 63.4918 17.088 63.3798 17.068C63.2678 17.044 63.1498 17.032 63.0258 17.032C62.8458 17.032 62.6858 17.058 62.5458 17.11C62.4098 17.162 62.2858 17.238 62.1738 17.338C62.0658 17.438 61.9698 17.56 61.8858 17.704C61.8018 17.848 61.7238 18.012 61.6518 18.196V22H60.3618V15.88H61.1118C61.2478 15.88 61.3418 15.906 61.3938 15.958C61.4458 16.006 61.4818 16.092 61.5018 16.216L61.5798 17.014ZM68.6006 18.25C68.6006 18.034 68.5686 17.834 68.5046 17.65C68.4446 17.462 68.3546 17.3 68.2346 17.164C68.1146 17.024 67.9646 16.916 67.7846 16.84C67.6086 16.76 67.4046 16.72 67.1726 16.72C66.7046 16.72 66.3366 16.854 66.0686 17.122C65.8006 17.39 65.6306 17.766 65.5586 18.25H68.6006ZM65.5226 19.042C65.5386 19.39 65.5926 19.692 65.6846 19.948C65.7766 20.2 65.8986 20.41 66.0506 20.578C66.2066 20.746 66.3906 20.872 66.6026 20.956C66.8186 21.036 67.0586 21.076 67.3226 21.076C67.5746 21.076 67.7926 21.048 67.9766 20.992C68.1606 20.932 68.3206 20.868 68.4566 20.8C68.5926 20.728 68.7086 20.664 68.8046 20.608C68.9006 20.548 68.9886 20.518 69.0686 20.518C69.1726 20.518 69.2526 20.558 69.3086 20.638L69.6746 21.112C69.5226 21.292 69.3506 21.444 69.1586 21.568C68.9666 21.692 68.7626 21.794 68.5466 21.874C68.3306 21.95 68.1086 22.004 67.8806 22.036C67.6526 22.072 67.4306 22.09 67.2146 22.09C66.7906 22.09 66.3966 22.02 66.0326 21.88C65.6726 21.736 65.3586 21.526 65.0906 21.25C64.8266 20.974 64.6186 20.632 64.4666 20.224C64.3186 19.816 64.2446 19.346 64.2446 18.814C64.2446 18.39 64.3106 17.994 64.4426 17.626C64.5786 17.258 64.7706 16.938 65.0186 16.666C65.2706 16.394 65.5746 16.18 65.9306 16.024C66.2906 15.864 66.6966 15.784 67.1486 15.784C67.5246 15.784 67.8726 15.846 68.1926 15.97C68.5126 16.09 68.7886 16.268 69.0206 16.504C69.2526 16.74 69.4326 17.03 69.5606 17.374C69.6926 17.714 69.7586 18.102 69.7586 18.538C69.7586 18.738 69.7366 18.872 69.6926 18.94C69.6486 19.008 69.5686 19.042 69.4526 19.042H65.5226Z" fill="#FDFDFD"/>
<path d="M78.5964 8.44506L85.3067 13.7199C85.7866 14.0975 85.7866 14.9374 85.3067 15.315L78.5964 20.5898C78.5263 20.645 78.4521 20.6988 78.3753 20.7483C77.5191 21.3007 76.9276 20.0639 77.1847 19.078C77.4577 18.031 77.9463 16.6076 77.9463 14.3238C77.9463 12.4897 77.5278 10.9949 77.2475 9.95007C76.9821 8.96115 77.4464 7.72627 78.3227 8.25592C78.4215 8.31565 78.5144 8.38068 78.5964 8.44506Z" fill="#FCFCFC"/>
</svg>
