<svg width="139" height="139" viewBox="0 0 139 139" fill="none" xmlns="http://www.w3.org/2000/svg">
<path fill-rule="evenodd" clip-rule="evenodd" d="M44.2731 44.2733C45.1521 43.3942 46.5773 43.3942 47.4564 44.2733L69.4998 66.3167L91.5433 44.2733C92.4223 43.3942 93.8475 43.3942 94.7266 44.2733C95.6057 45.1524 95.6057 46.5776 94.7266 47.4566L72.6832 69.5001L94.7266 91.5435C95.6057 92.4226 95.6057 93.8478 94.7266 94.7268C93.8475 95.6059 92.4223 95.6059 91.5433 94.7268L69.4998 72.6834L47.4564 94.7268C46.5773 95.6059 45.1521 95.6059 44.2731 94.7268C43.394 93.8478 43.394 92.4226 44.2731 91.5435L66.3165 69.5001L44.2731 47.4566C43.394 46.5776 43.394 45.1524 44.2731 44.2733Z" fill="#EE0202" stroke="#EE0202" stroke-width="2" stroke-linecap="round" stroke-linejoin="round"/>
<path fill-rule="evenodd" clip-rule="evenodd" d="M91.1221 43.8519C92.2339 42.7401 94.0365 42.7401 95.1483 43.8519C96.2601 44.9637 96.2601 46.7663 95.1483 47.8781L73.5263 69.5001L95.1483 91.1221C96.2601 92.2339 96.2601 94.0365 95.1483 95.1483C94.0365 96.2601 92.2339 96.2601 91.1221 95.1483L69.5001 73.5263L47.8781 95.1483C46.7663 96.2601 44.9637 96.2601 43.8519 95.1483C42.7401 94.0365 42.7401 92.2339 43.8519 91.1221L65.4739 69.5001L43.8519 47.8781C42.7401 46.7663 42.7401 44.9637 43.8519 43.8519C44.9637 42.7401 46.7663 42.7401 47.8781 43.8519L69.5001 65.4739L91.1221 43.8519ZM94.3055 44.6948C93.6592 44.0485 92.6113 44.0485 91.965 44.6948L69.9216 66.7382C69.8098 66.85 69.6582 66.9128 69.5001 66.9128C69.3421 66.9128 69.1905 66.85 69.0787 66.7382L47.0353 44.6948C46.389 44.0485 45.3411 44.0485 44.6948 44.6948C44.0485 45.3411 44.0485 46.389 44.6948 47.0353L66.7382 69.0787C66.85 69.1905 66.9128 69.3421 66.9128 69.5001C66.9128 69.6582 66.85 69.8098 66.7382 69.9216L44.6948 91.965C44.0485 92.6113 44.0485 93.6592 44.6948 94.3055C45.3411 94.9518 46.389 94.9518 47.0353 94.3055L69.0787 72.262C69.1905 72.1503 69.3421 72.0875 69.5001 72.0875C69.6582 72.0875 69.8098 72.1503 69.9216 72.262L91.965 94.3055C92.6113 94.9518 93.6592 94.9518 94.3055 94.3055C94.9518 93.6592 94.9518 92.6113 94.3055 91.965L72.262 69.9216C72.1503 69.8098 72.0875 69.6582 72.0875 69.5001C72.0875 69.3421 72.1503 69.1905 72.262 69.0787L94.3055 47.0353C94.9518 46.389 94.9518 45.3411 94.3055 44.6948Z" fill="#EE0202" stroke="#EE0202" stroke-width="2" stroke-linecap="round" stroke-linejoin="round"/>
<path fill-rule="evenodd" clip-rule="evenodd" d="M69.5002 6.09787C34.4842 6.09787 6.09811 34.4839 6.09811 69.4999C6.09811 104.516 34.4842 132.902 69.5002 132.902C104.516 132.902 132.902 104.516 132.902 69.4999C132.902 34.4839 104.516 6.09787 69.5002 6.09787ZM1.59619 69.4999C1.59619 31.9976 31.9978 1.59595 69.5002 1.59595C107.003 1.59595 137.404 31.9976 137.404 69.4999C137.404 107.002 107.003 137.404 69.5002 137.404C31.9978 137.404 1.59619 107.002 1.59619 69.4999Z" fill="#EE0202" stroke="#EE0202" stroke-width="2" stroke-linecap="round" stroke-linejoin="round"/>
<path fill-rule="evenodd" clip-rule="evenodd" d="M1 69.5C1 31.6685 31.6685 1 69.5 1C107.331 1 138 31.6685 138 69.5C138 107.331 107.331 138 69.5 138C31.6685 138 1 107.331 1 69.5ZM69.5 2.192C32.3268 2.192 2.192 32.3268 2.192 69.5C2.192 106.673 32.3268 136.808 69.5 136.808C106.673 136.808 136.808 106.673 136.808 69.5C136.808 32.3268 106.673 2.192 69.5 2.192ZM69.5 6.69392C34.8132 6.69392 6.69392 34.8132 6.69392 69.5C6.69392 104.187 34.8132 132.306 69.5 132.306C104.187 132.306 132.306 104.187 132.306 69.5C132.306 34.8132 104.187 6.69392 69.5 6.69392ZM5.50192 69.5C5.50192 34.1548 34.1548 5.50192 69.5 5.50192C104.845 5.50192 133.498 34.1548 133.498 69.5C133.498 104.845 104.845 133.498 69.5 133.498C34.1548 133.498 5.50192 104.845 5.50192 69.5Z" fill="#EE0202" stroke="#EE0202" stroke-width="2" stroke-linecap="round" stroke-linejoin="round"/>
</svg>
