<svg width="15" height="15" viewBox="0 0 15 15" fill="none" xmlns="http://www.w3.org/2000/svg">
<path d="M7.91671 14.25C11.4146 14.25 14.25 11.4146 14.25 7.91666C14.25 4.41876 11.4146 1.58333 7.91671 1.58333C4.41881 1.58333 1.58337 4.41876 1.58337 7.91666C1.58337 11.4146 4.41881 14.25 7.91671 14.25Z" stroke="#1F276B" stroke-width="1.5" stroke-linecap="round" stroke-linejoin="round"/>
<path d="M9.8166 5.69999C9.38277 5.26615 8.61897 4.96469 7.9166 4.94569M6.0166 9.81665C6.42447 10.3613 7.18383 10.6717 7.9166 10.6976M7.9166 4.94569C7.0806 4.92289 6.33327 5.30099 6.33327 6.33332C6.33327 8.23332 9.8166 7.28332 9.8166 9.18332C9.8166 10.267 8.8894 10.7325 7.9166 10.6976M7.9166 4.94569V3.79999M7.9166 10.6976V12.0333" stroke="#1F276B" stroke-width="1.5" stroke-linecap="round" stroke-linejoin="round"/>
</svg>
