<svg width="16" height="25" viewBox="0 0 16 25" fill="none" xmlns="http://www.w3.org/2000/svg">
<path d="M1.77778 0.892857C1.77778 0.656057 1.68413 0.428955 1.51743 0.261512C1.35073 0.0940686 1.12464 0 0.888889 0C0.653141 0 0.427049 0.0940686 0.26035 0.261512C0.0936508 0.428955 9.26474e-08 0.656057 9.26474e-08 0.892857V6.25C-0.000209023 7.27915 0.353585 8.27677 1.00151 9.07402C2.12031 10.4507 3.55556 11.8985 3.55556 13.6725V24.1071C3.55556 24.3439 3.64921 24.571 3.81591 24.7385C3.9826 24.9059 4.2087 25 4.44444 25C4.68019 25 4.90628 24.9059 5.07298 24.7385C5.23968 24.571 5.33333 24.3439 5.33333 24.1071V13.6725C5.33333 11.8985 6.76858 10.4507 7.88738 9.07402C8.5353 8.27677 8.8891 7.27915 8.88889 6.25V0.892857C8.88889 0.656057 8.79524 0.428955 8.62854 0.261512C8.46184 0.0940686 8.23575 0 8 0C7.76425 0 7.53816 0.0940686 7.37146 0.261512C7.20476 0.428955 7.11111 0.656057 7.11111 0.892857V6.25C7.1114 6.80415 6.94057 7.34476 6.62217 7.79731C6.16059 8.45336 5.33333 7.93426 5.33333 7.1321V0.892857C5.33333 0.656057 5.23968 0.428955 5.07298 0.261512C4.90628 0.0940686 4.68019 0 4.44444 0C4.2087 0 3.9826 0.0940686 3.81591 0.261512C3.64921 0.428955 3.55556 0.656057 3.55556 0.892857V7.1321C3.55556 7.93426 2.7283 8.45336 2.26672 7.79731C1.94832 7.34476 1.77749 6.80415 1.77778 6.25V0.892857ZM14.2222 24.1071V15.1667C14.2222 13.6939 13.0283 12.5 11.5556 12.5C11.3198 12.5 11.0937 12.4059 10.927 12.2385C10.7603 12.071 10.6667 11.8439 10.6667 11.6071V4.46429C10.6667 3.28036 11.2462 2.17321 12.0373 1.37679C12.8302 0.582143 13.9324 0 15.1111 0C15.3469 0 15.573 0.0940686 15.7397 0.261512C15.9064 0.428955 16 0.656057 16 0.892857V24.1071C16 24.3439 15.9064 24.571 15.7397 24.7385C15.573 24.9059 15.3469 25 15.1111 25C14.8754 25 14.6493 24.9059 14.4826 24.7385C14.3159 24.571 14.2222 24.3439 14.2222 24.1071Z" fill="#631F6A"/>
</svg>
