<svg width="24" height="24" viewBox="0 0 24 24" fill="none" xmlns="http://www.w3.org/2000/svg">
<path d="M15 24H9C8.46973 23.9995 7.96133 23.7886 7.58637 23.4136C7.21141 23.0387 7.00053 22.5303 7 22V17H2C1.46973 16.9995 0.961329 16.7886 0.586371 16.4136C0.211413 16.0387 0.000529477 15.5303 0 15V9C0.000529477 8.46973 0.211413 7.96133 0.586371 7.58637C0.961329 7.21141 1.46973 7.00053 2 7H7V2C7.00053 1.46973 7.21141 0.961329 7.58637 0.586371C7.96133 0.211413 8.46973 0.000529477 9 0H15C15.5303 0.000529477 16.0387 0.211413 16.4136 0.586371C16.7886 0.961329 16.9995 1.46973 17 2V7H22C22.5303 7.00053 23.0387 7.21141 23.4136 7.58637C23.7886 7.96133 23.9995 8.46973 24 9V15C23.9992 15.5302 23.7882 16.0384 23.4133 16.4133C23.0384 16.7882 22.5302 16.9992 22 17H17V22C16.9992 22.5302 16.7882 23.0384 16.4133 23.4133C16.0384 23.7882 15.5302 23.9992 15 24ZM2 9V15H9V22H15V15H22V9H15V2H9V9H2Z" fill="#631F6A"/>
</svg>
