<svg width="24" height="24" viewBox="0 0 24 24" fill="none" xmlns="http://www.w3.org/2000/svg">
<path fill-rule="evenodd" clip-rule="evenodd" d="M16.4372 7.53899C16.9059 8.00767 16.9059 8.76757 16.4372 9.23626L9.23629 16.4372C8.7676 16.9058 8.0077 16.9058 7.53902 16.4372C7.07033 15.9685 7.07033 15.2086 7.53902 14.7399L14.7399 7.53899C15.2086 7.0703 15.9685 7.0703 16.4372 7.53899Z" fill="#1F276B"/>
<path d="M8.98753 9.58772C9.31894 9.58772 9.5876 9.31906 9.5876 8.98765C9.5876 8.65624 9.31894 8.38757 8.98753 8.38757C8.65611 8.38757 8.38745 8.65624 8.38745 8.98765C8.38745 9.31906 8.65611 9.58772 8.98753 9.58772Z" fill="#1F276B"/>
<path fill-rule="evenodd" clip-rule="evenodd" d="M8.98773 9.58777C9.31914 9.58777 9.5878 9.31911 9.5878 8.9877C9.5878 8.65628 9.31914 8.38762 8.98773 8.38762C8.65631 8.38762 8.38765 8.65628 8.38765 8.9877C8.38765 9.31911 8.65631 9.58777 8.98773 9.58777ZM7.1875 8.9877C7.1875 7.99346 7.99349 7.18747 8.98773 7.18747C9.98196 7.18747 10.788 7.99346 10.788 8.9877C10.788 9.98193 9.98196 10.7879 8.98773 10.7879C7.99349 10.7879 7.1875 9.98193 7.1875 8.9877Z" fill="#1F276B"/>
<path d="M14.9883 15.5885C15.3197 15.5885 15.5883 15.3199 15.5883 14.9884C15.5883 14.657 15.3197 14.3884 14.9883 14.3884C14.6568 14.3884 14.3882 14.657 14.3882 14.9884C14.3882 15.3199 14.6568 15.5885 14.9883 15.5885Z" fill="#1F276B"/>
<path fill-rule="evenodd" clip-rule="evenodd" d="M14.9885 15.5884C15.3199 15.5884 15.5885 15.3197 15.5885 14.9883C15.5885 14.6569 15.3199 14.3883 14.9885 14.3883C14.657 14.3883 14.3884 14.6569 14.3884 14.9883C14.3884 15.3197 14.657 15.5884 14.9885 15.5884ZM13.1882 14.9883C13.1882 13.9941 13.9942 13.1881 14.9885 13.1881C15.9827 13.1881 16.7887 13.9941 16.7887 14.9883C16.7887 15.9826 15.9827 16.7886 14.9885 16.7886C13.9942 16.7886 13.1882 15.9826 13.1882 14.9883Z" fill="#1F276B"/>
<path fill-rule="evenodd" clip-rule="evenodd" d="M12 2.4003C11.8102 2.4003 11.6223 2.43782 11.447 2.5107C11.2717 2.58359 11.1126 2.6904 10.9788 2.82499L10.9764 2.82737L10.1363 3.66748L10.1339 3.66986C9.41484 4.38489 8.44217 4.78651 7.42811 4.78709L6.22727 4.78709C5.84531 4.78709 5.479 4.93883 5.20891 5.20891C4.93883 5.479 4.78709 5.84531 4.78709 6.22727V7.42742C4.78651 8.44148 4.38489 9.41484 3.66986 10.1339L3.66748 10.1363L2.82737 10.9764L2.82499 10.9788C2.6904 11.1126 2.58359 11.2717 2.5107 11.447C2.43782 11.6223 2.4003 11.8102 2.4003 12C2.4003 12.1898 2.43782 12.3777 2.5107 12.553C2.58359 12.7283 2.6904 12.8874 2.82499 13.0212L2.82738 13.0236L3.66986 13.8661C4.38489 14.5852 4.78651 15.5578 4.78709 16.5719L4.78709 17.7727C4.78709 18.1547 4.93883 18.521 5.20891 18.7911C5.479 19.0612 5.84531 19.2129 6.22727 19.2129H7.42742C8.44148 19.2135 9.41484 19.6151 10.1339 20.3301L10.1363 20.3325L10.9788 21.175C11.1126 21.3096 11.2717 21.4164 11.447 21.4893C11.6223 21.5622 11.8102 21.5997 12 21.5997C12.1898 21.5997 12.3777 21.5622 12.553 21.4893C12.7283 21.4164 12.8874 21.3096 13.0212 21.175L13.0236 21.1726L13.8637 20.3325L13.8661 20.3301C14.5852 19.6151 15.5578 19.2135 16.5719 19.2129H17.7727C18.1547 19.2129 18.521 19.0612 18.7911 18.7911C19.0612 18.521 19.2129 18.1547 19.2129 17.7727V16.5726C19.2135 15.5585 19.6151 14.5852 20.3301 13.8661L20.3325 13.8637L21.1726 13.0236L21.175 13.0212C21.3096 12.8874 21.4164 12.7283 21.4893 12.553C21.5622 12.3777 21.5997 12.1898 21.5997 12C21.5997 11.8102 21.5622 11.6223 21.4893 11.447C21.4164 11.2717 21.3096 11.1126 21.175 10.9788L21.1726 10.9764L20.3325 10.1363L20.3301 10.1339C19.6151 9.41484 19.2135 8.44217 19.2129 7.42811V6.22727C19.2129 5.84531 19.0612 5.479 18.7911 5.20891C18.521 4.93883 18.1547 4.78709 17.7727 4.78709H16.5726C15.5585 4.78651 14.5852 4.38489 13.8661 3.66986L13.8637 3.66748L13.0236 2.82738L13.0212 2.82499C12.8874 2.6904 12.7283 2.58359 12.553 2.5107C12.3777 2.43782 12.1898 2.4003 12 2.4003ZM2.38679 7.42705C2.38649 7.80672 2.23628 8.1709 1.96886 8.44037C1.96852 8.44072 1.96817 8.44106 1.96783 8.44141L1.13249 9.27675C1.13203 9.27721 1.13156 9.27767 1.13109 9.27814C0.772842 9.63475 0.488509 10.0586 0.294407 10.5253C0.100053 10.9927 0 11.4938 0 12C0 12.5062 0.100053 13.0073 0.294407 13.4747C0.488531 13.9415 0.772906 14.3653 1.13122 14.722C1.13164 14.7224 1.13207 14.7228 1.13249 14.7233L1.96783 15.5586C1.96817 15.5589 1.96852 15.5593 1.96886 15.5596C2.23628 15.8291 2.38649 16.1933 2.38679 16.5729V17.7727C2.38679 18.7913 2.79141 19.7681 3.51164 20.4884C4.23187 21.2086 5.20871 21.6132 6.22727 21.6132H7.42674C7.80663 21.6134 8.17104 21.7637 8.4406 22.0314C8.44034 22.0311 8.44087 22.0316 8.4406 22.0314L9.27675 22.8675C9.27719 22.868 9.27764 22.8684 9.27808 22.8688C9.63471 23.2271 10.0586 23.5115 10.5253 23.7056C10.9927 23.8999 11.4938 24 12 24C12.5062 24 13.0073 23.8999 13.4747 23.7056C13.9413 23.5115 14.3651 23.2273 14.7217 22.8691C14.7222 22.8686 14.7227 22.868 14.7233 22.8675L15.5586 22.0322C15.5589 22.0318 15.5593 22.0315 15.5596 22.0311C15.8292 21.7636 16.1935 21.6134 16.5733 21.6132H17.7727C18.7913 21.6132 19.7681 21.2086 20.4884 20.4884C21.2086 19.7681 21.6132 18.7913 21.6132 17.7727V16.5733C21.6134 16.1935 21.7636 15.8292 22.0311 15.5596C22.0315 15.5593 22.0318 15.5589 22.0322 15.5586L22.8675 14.7233C22.868 14.7227 22.8686 14.7222 22.8691 14.7217C23.2273 14.3651 23.5115 13.9413 23.7056 13.4747C23.8999 13.0073 24 12.5062 24 12C24 11.4938 23.8999 10.9927 23.7056 10.5253C23.5115 10.0586 23.2271 9.63471 22.8688 9.27808C22.8684 9.27764 22.868 9.27719 22.8675 9.27675L22.0322 8.44141C22.0324 8.44168 22.0319 8.44114 22.0322 8.44141C21.7645 8.17184 21.6134 7.80663 21.6132 7.42674V6.22727C21.6132 5.20871 21.2086 4.23187 20.4884 3.51164C19.7681 2.79141 18.7913 2.38679 17.7727 2.38679H16.5729C16.1933 2.38649 15.8291 2.23628 15.5596 1.96886C15.5593 1.96852 15.5589 1.96817 15.5586 1.96783L14.7233 1.13249C14.7228 1.13207 14.7224 1.13164 14.722 1.13122C14.3653 0.772906 13.9415 0.488531 13.4747 0.294407C13.0073 0.100053 12.5062 0 12 0C11.4938 0 10.9927 0.100053 10.5253 0.294407C10.0586 0.488509 9.63475 0.772842 9.27814 1.13109C9.27767 1.13156 9.27721 1.13203 9.27675 1.13249L8.44141 1.96783C8.44106 1.96817 8.44072 1.96852 8.44037 1.96886C8.1709 2.23628 7.80672 2.38649 7.42705 2.38679H6.22727C5.20871 2.38679 4.23187 2.79141 3.51164 3.51164C2.79141 4.23187 2.38679 5.20871 2.38679 6.22727V7.42705Z" fill="#1F276B"/>
</svg>
