<svg xmlns="http://www.w3.org/2000/svg" height="48" viewBox="0 -960 960 960" width="48"><path d="M700.961-83q-79.016 0-132.488-54.011Q515-191.023 515-269.039q0-78.016 53.511-131.988Q622.023-455 701.039-455q78.016 0 131.988 54.011Q887-346.977 887-268.961q0 78.016-54.011 131.988Q778.977-83 700.961-83Zm59.282-79L794-198l-76-75.198V-386h-50v130.716L760.243-162ZM190-98q-38.175 0-64.588-27.112Q99-152.225 99-189v-581q0-38.975 25.312-65.487Q149.625-862 190-862h175q10-34 41.892-58 31.892-24 73.108-24 40 0 71.5 23.5T596-862h174q40.375 0 66.188 26.513Q862-808.975 862-770v311q-22-15-43.516-25.48T770-500v-270h-55v98H245v-98h-55v581h281q7 25 20.5 48.5T523-98H190Zm290.5-685q15.5 0 27.5-12t12-28.5q0-15.5-12-27.5t-28-12q-16 0-28 12t-12 28q0 16 12 28t28.5 12Z"/></svg>