<svg width="20" height="22" viewBox="0 0 20 22" fill="none" xmlns="http://www.w3.org/2000/svg">
<path d="M14.212 1.237C14.2718 1.04911 14.2552 0.845206 14.1659 0.66944C14.0765 0.493674 13.9214 0.360184 13.7344 0.297866C13.5473 0.235548 13.3432 0.249417 13.1662 0.33647C12.9893 0.423524 12.8538 0.576757 12.789 0.763L12.039 3.012C11.9791 3.19989 11.9957 3.40379 12.0851 3.57956C12.1745 3.75533 12.3295 3.88882 12.5166 3.95113C12.7037 4.01345 12.9078 3.99958 13.0847 3.91253C13.2617 3.82548 13.3972 3.67224 13.462 3.486L14.212 1.237ZM18.78 1.22C18.9204 1.36063 18.9993 1.55125 18.9993 1.75C18.9993 1.94875 18.9204 2.13937 18.78 2.28L16.28 4.78C16.2113 4.85369 16.1285 4.91279 16.0365 4.95378C15.9445 4.99477 15.8452 5.01681 15.7445 5.01859C15.6438 5.02037 15.5438 5.00184 15.4504 4.96412C15.357 4.9264 15.2722 4.87026 15.2009 4.79904C15.1297 4.72782 15.0736 4.64299 15.0359 4.5496C14.9981 4.45621 14.9796 4.35618 14.9814 4.25548C14.9832 4.15477 15.0052 4.05546 15.0462 3.96346C15.0872 3.87146 15.1463 3.78866 15.22 3.72L17.72 1.22C17.8606 1.07955 18.0512 1.00066 18.25 1.00066C18.4487 1.00066 18.6394 1.07955 18.78 1.22ZM6.07598 3.318C6.24006 2.97729 6.48477 2.68175 6.7889 2.45699C7.09302 2.23224 7.44738 2.08506 7.82124 2.02821C8.19511 1.97137 8.5772 2.00658 8.93438 2.13079C9.29156 2.255 9.61305 2.46445 9.87098 2.741L16.877 10.247C17.13 10.5181 17.3144 10.8457 17.415 11.2026C17.5156 11.5594 17.5294 11.9352 17.4552 12.2985C17.381 12.6617 17.221 13.002 16.9886 13.2909C16.7561 13.5797 16.458 13.8088 16.119 13.959L12.699 15.475C13.1149 16.4426 13.1324 17.5352 12.7477 18.5157C12.363 19.4961 11.6072 20.2853 10.6442 20.7118C9.68123 21.1384 8.58888 21.168 7.60425 20.7941C6.61962 20.4203 5.82217 19.6732 5.38498 18.715L3.96798 19.343C3.6439 19.4866 3.28464 19.5313 2.93525 19.4715C2.58586 19.4118 2.26189 19.2502 2.00398 19.007L0.564982 17.65C0.286762 17.3877 0.0992756 17.0437 0.0296942 16.6678C-0.0398872 16.2918 0.0120511 15.9035 0.177982 15.559L6.07598 3.319V3.318ZM6.75798 18.107C7.04028 18.691 7.5385 19.1424 8.14743 19.3659C8.75635 19.5894 9.4283 19.5674 10.0214 19.3047C10.6144 19.042 11.0821 18.5591 11.3258 17.9579C11.5694 17.3568 11.5698 16.6845 11.327 16.083L6.75698 18.107H6.75798ZM8.77398 3.765C8.6825 3.66698 8.56851 3.59273 8.44187 3.54868C8.31524 3.50463 8.17977 3.49211 8.04721 3.5122C7.91464 3.53229 7.78897 3.58439 7.68108 3.66398C7.57318 3.74358 7.48631 3.84827 7.42798 3.969L1.52998 16.21C1.50215 16.2674 1.49335 16.3322 1.50486 16.395C1.51637 16.4577 1.54759 16.5152 1.59398 16.559L3.03298 17.915C3.07594 17.9555 3.12987 17.9824 3.18804 17.9923C3.2462 18.0023 3.30601 17.9949 3.35998 17.971L15.511 12.588C15.6313 12.5348 15.7372 12.4536 15.8198 12.3512C15.9023 12.2487 15.9592 12.128 15.9856 11.9991C16.012 11.8702 16.0072 11.7369 15.9717 11.6102C15.9361 11.4836 15.8707 11.3673 15.781 11.271L8.77398 3.765ZM16 7.249C16 7.05009 16.079 6.85932 16.2197 6.71867C16.3603 6.57802 16.5511 6.499 16.75 6.499H18.75C18.9489 6.499 19.1397 6.57802 19.2803 6.71867C19.421 6.85932 19.5 7.05009 19.5 7.249C19.5 7.44791 19.421 7.63868 19.2803 7.77933C19.1397 7.91998 18.9489 7.999 18.75 7.999H16.75C16.5511 7.999 16.3603 7.91998 16.2197 7.77933C16.079 7.63868 16 7.44791 16 7.249Z" fill="#651F6B"/>
</svg>
