<svg width="14" height="16" viewBox="0 0 14 16" fill="none" xmlns="http://www.w3.org/2000/svg">
<path d="M5.00956 8.60079C5.38301 8.60079 5.74116 8.75695 6.00523 9.03492C6.2693 9.31289 6.41766 9.6899 6.41766 10.083V13.7062C6.41766 14.0993 6.2693 14.4763 6.00523 14.7543C5.74116 15.0322 5.38301 15.1884 5.00956 15.1884H1.56753C1.19407 15.1884 0.835918 15.0322 0.571848 14.7543C0.307777 14.4763 0.159424 14.0993 0.159424 13.7062V10.083C0.159424 9.6899 0.307777 9.31289 0.571848 9.03492C0.835918 8.75695 1.19407 8.60079 1.56753 8.60079H5.00956ZM9.75643 8.60079V10.7964H11.8417V12.9928H9.75643V15.1877H7.6693V12.9921H9.75517V10.7964H7.6693V8.60079H9.75643ZM13.9275 12.9921V15.1884H11.8417V12.9928L13.9275 12.9921ZM5.00956 9.58893H1.56753C1.44304 9.58893 1.32366 9.64099 1.23563 9.73364C1.14761 9.8263 1.09816 9.95197 1.09816 10.083V13.7062C1.09816 13.9789 1.30844 14.2003 1.56753 14.2003H5.00956C5.13404 14.2003 5.25343 14.1482 5.34145 14.0556C5.42947 13.9629 5.47892 13.8372 5.47892 13.7062V10.083C5.47892 9.95197 5.42947 9.8263 5.34145 9.73364C5.25343 9.64099 5.13404 9.58893 5.00956 9.58893ZM4.22728 10.9065V12.8827H2.34981V10.9065H4.22728ZM13.9275 8.60079V10.7964H11.8417V8.60079H13.9275ZM5.00956 0.695653C5.38301 0.695653 5.74116 0.851814 6.00523 1.12978C6.2693 1.40775 6.41766 1.78476 6.41766 2.17787V5.80105C6.41766 6.19416 6.2693 6.57117 6.00523 6.84914C5.74116 7.12711 5.38301 7.28327 5.00956 7.28327H1.56753C1.19407 7.28327 0.835918 7.12711 0.571848 6.84914C0.307777 6.57117 0.159424 6.19416 0.159424 5.80105V2.17787C0.159424 1.78476 0.307777 1.40775 0.571848 1.12978C0.835918 0.851814 1.19407 0.695653 1.56753 0.695653H5.00956ZM12.5194 0.695653C12.8929 0.695653 13.251 0.851814 13.5151 1.12978C13.7792 1.40775 13.9275 1.78476 13.9275 2.17787V5.80105C13.9275 6.19416 13.7792 6.57117 13.5151 6.84914C13.251 7.12711 12.8929 7.28327 12.5194 7.28327H9.07741C8.70396 7.28327 8.3458 7.12711 8.08173 6.84914C7.81766 6.57117 7.6693 6.19416 7.6693 5.80105V2.17787C7.6693 1.78476 7.81766 1.40775 8.08173 1.12978C8.3458 0.851814 8.70396 0.695653 9.07741 0.695653H12.5194ZM5.00956 1.6838H1.56753C1.44304 1.6838 1.32366 1.73585 1.23563 1.82851C1.14761 1.92116 1.09816 2.04683 1.09816 2.17787V5.80105C1.09816 6.07378 1.30844 6.29513 1.56753 6.29513H5.00956C5.13404 6.29513 5.25343 6.24307 5.34145 6.15042C5.42947 6.05776 5.47892 5.93209 5.47892 5.80105V2.17787C5.47892 2.04683 5.42947 1.92116 5.34145 1.82851C5.25343 1.73585 5.13404 1.6838 5.00956 1.6838ZM12.5194 1.6838H9.07741C8.95292 1.6838 8.83354 1.73585 8.74551 1.82851C8.65749 1.92116 8.60804 2.04683 8.60804 2.17787V5.80105C8.60804 6.07378 8.81832 6.29513 9.07741 6.29513H12.5194C12.6439 6.29513 12.7633 6.24307 12.8513 6.15042C12.9394 6.05776 12.9888 5.93209 12.9888 5.80105V2.17787C12.9888 2.04683 12.9394 1.92116 12.8513 1.82851C12.7633 1.73585 12.6439 1.6838 12.5194 1.6838ZM4.22728 3.00132V4.9776H2.34981V3.00132H4.22728ZM11.7372 3.00132V4.9776H9.85969V3.00132H11.7372Z" fill="#651F6B"/>
</svg>
