<svg width="22" height="22" viewBox="0 0 22 22" fill="none" xmlns="http://www.w3.org/2000/svg">
<path d="M17.4377 15.5623C17.0083 15.151 16.5905 14.728 16.1846 14.2936C15.8436 13.9471 15.6383 13.695 15.6383 13.695L13.0716 12.4694C14.0992 11.304 14.6663 9.80374 14.6666 8.25C14.6666 4.71259 11.7883 1.83334 8.24992 1.83334C4.71159 1.83334 1.83325 4.71259 1.83325 8.25C1.83325 11.7874 4.71159 14.6667 8.24992 14.6667C9.866 14.6667 11.3391 14.0617 12.4693 13.0726L13.6949 15.6393C13.6949 15.6393 13.947 15.8446 14.2935 16.1856C14.6483 16.5183 15.1148 16.9684 15.5622 17.4387L16.807 18.7147L17.3607 19.3068L19.3049 17.3626L18.7128 16.8089C18.3653 16.4679 17.9015 16.0151 17.4377 15.5623ZM8.24992 12.8333C5.72267 12.8333 3.66659 10.7773 3.66659 8.25C3.66659 5.72275 5.72267 3.66667 8.24992 3.66667C10.7772 3.66667 12.8333 5.72275 12.8333 8.25C12.8333 10.7773 10.7772 12.8333 8.24992 12.8333Z" fill="#1F276B"/>
</svg>
