<svg width="24" height="24" viewBox="0 0 24 24" fill="none" xmlns="http://www.w3.org/2000/svg">
<path d="M20.2499 12.57V11.4225L21.6899 10.1625C21.9554 9.92854 22.1296 9.60827 22.1817 9.2583C22.2339 8.90833 22.1606 8.55119 21.9749 8.25L20.2049 5.25C20.0734 5.0222 19.8843 4.83299 19.6566 4.70135C19.4288 4.56971 19.1705 4.50027 18.9074 4.5C18.7444 4.49875 18.5823 4.52408 18.4274 4.575L16.6049 5.19C16.2903 4.98091 15.9621 4.79299 15.6224 4.6275L15.2399 2.7375C15.1714 2.3922 14.9835 2.08203 14.7093 1.86128C14.4351 1.64052 14.0919 1.52325 13.7399 1.53H10.2299C9.87797 1.52325 9.53483 1.64052 9.2606 1.86128C8.98638 2.08203 8.79853 2.3922 8.72995 2.7375L8.34745 4.6275C8.0054 4.79295 7.67467 4.98086 7.35745 5.19L5.57245 4.545C5.41592 4.50422 5.25383 4.48902 5.09245 4.5C4.8294 4.50027 4.57105 4.56971 4.34332 4.70135C4.11558 4.83299 3.92647 5.0222 3.79495 5.25L2.02495 8.25C1.84989 8.55074 1.78483 8.90299 1.84093 9.24642C1.89703 9.58985 2.07079 9.9031 2.33245 10.1325L3.74995 11.43V12.5775L2.33245 13.8375C2.0634 14.0685 1.88489 14.3873 1.82859 14.7375C1.7723 15.0876 1.84187 15.4463 2.02495 15.75L3.79495 18.75C3.92647 18.9778 4.11558 19.167 4.34332 19.2987C4.57105 19.4303 4.8294 19.4997 5.09245 19.5C5.25546 19.5012 5.41758 19.4759 5.57245 19.425L7.39495 18.81C7.7096 19.0191 8.03783 19.207 8.37745 19.3725L8.75995 21.2625C8.82853 21.6078 9.01638 21.918 9.2906 22.1387C9.56483 22.3595 9.90797 22.4767 10.2599 22.47H13.7999C14.1519 22.4767 14.4951 22.3595 14.7693 22.1387C15.0435 21.918 15.2314 21.6078 15.2999 21.2625L15.6824 19.3725C16.0245 19.2071 16.3552 19.0191 16.6724 18.81L18.4874 19.425C18.6423 19.4759 18.8044 19.5012 18.9674 19.5C19.2305 19.4997 19.4888 19.4303 19.7166 19.2987C19.9443 19.167 20.1334 18.9778 20.2649 18.75L21.9749 15.75C22.15 15.4493 22.2151 15.097 22.159 14.7536C22.1029 14.4101 21.9291 14.0969 21.6674 13.8675L20.2499 12.57ZM18.9074 18L16.3349 17.13C15.7327 17.6401 15.0445 18.0388 14.3024 18.3075L13.7699 21H10.2299L9.69745 18.3375C8.96126 18.0612 8.27673 17.6631 7.67245 17.16L5.09245 18L3.32245 15L5.36245 13.2C5.22377 12.4236 5.22377 11.6289 5.36245 10.8525L3.32245 9L5.09245 6L7.66495 6.87C8.26715 6.35992 8.9554 5.96119 9.69745 5.6925L10.2299 3H13.7699L14.3024 5.6625C15.0386 5.93882 15.7232 6.33686 16.3274 6.84L18.9074 6L20.6774 9L18.6374 10.8C18.7761 11.5764 18.7761 12.3711 18.6374 13.1475L20.6774 15L18.9074 18Z" fill="#1F276B"/>
<path d="M12 16.5C11.11 16.5 10.24 16.2361 9.49994 15.7416C8.75991 15.2471 8.18314 14.5443 7.84254 13.7221C7.50195 12.8998 7.41283 11.995 7.58647 11.1221C7.7601 10.2492 8.18868 9.44736 8.81802 8.81802C9.44736 8.18868 10.2492 7.7601 11.1221 7.58647C11.995 7.41283 12.8998 7.50195 13.7221 7.84254C14.5443 8.18314 15.2471 8.75991 15.7416 9.49994C16.2361 10.24 16.5 11.11 16.5 12C16.506 12.5926 16.3937 13.1805 16.1697 13.7292C15.9457 14.2779 15.6145 14.7763 15.1954 15.1954C14.7763 15.6145 14.2779 15.9457 13.7292 16.1697C13.1805 16.3937 12.5926 16.506 12 16.5ZM12 9C11.6035 8.99077 11.2093 9.06205 10.8411 9.20954C10.473 9.35704 10.1386 9.57768 9.85812 9.85812C9.57768 10.1386 9.35704 10.473 9.20954 10.8411C9.06205 11.2093 8.99077 11.6035 9 12C8.99077 12.3965 9.06205 12.7907 9.20954 13.1589C9.35704 13.527 9.57768 13.8615 9.85812 14.1419C10.1386 14.4223 10.473 14.643 10.8411 14.7905C11.2093 14.938 11.6035 15.0092 12 15C12.3965 15.0092 12.7907 14.938 13.1589 14.7905C13.527 14.643 13.8615 14.4223 14.1419 14.1419C14.4223 13.8615 14.643 13.527 14.7905 13.1589C14.938 12.7907 15.0092 12.3965 15 12C15.0092 11.6035 14.938 11.2093 14.7905 10.8411C14.643 10.473 14.4223 10.1386 14.1419 9.85812C13.8615 9.57768 13.527 9.35704 13.1589 9.20954C12.7907 9.06205 12.3965 8.99077 12 9Z" fill="#1F276B"/>
</svg>
