<svg width="24" height="24" viewBox="0 0 24 24" fill="none" xmlns="http://www.w3.org/2000/svg">
<path d="M12 0C5.376 0 0 5.376 0 12C0 18.624 5.376 24 12 24C18.624 24 24 18.624 24 12C24 5.376 18.624 0 12 0ZM13.2 3.96L14.82 2.82C16.9907 3.49266 18.8529 4.91267 20.076 6.828L19.608 8.436L17.988 8.988L13.2 5.64V3.96ZM9.18 2.82L10.8 3.96V5.64L6.012 8.988L4.392 8.436L3.924 6.828C5.15423 4.91924 7.01373 3.50126 9.18 2.82ZM6.096 18.132L4.728 18.252C3.22373 16.5168 2.39699 14.2965 2.4 12C2.4 11.856 2.412 11.724 2.424 11.58L3.624 10.704L5.28 11.28L7.032 16.488L6.096 18.132ZM15 21.108C14.052 21.42 13.044 21.6 12 21.6C10.956 21.6 9.948 21.42 9 21.108L8.172 19.32L8.94 18H15.072L15.84 19.332L15 21.108ZM14.724 15.6H9.276L7.656 10.776L12 7.728L16.356 10.776L14.724 15.6ZM19.272 18.252L17.904 18.132L16.956 16.488L18.708 11.28L20.376 10.716L21.576 11.592C21.588 11.724 21.6 11.856 21.6 12C21.6 14.388 20.724 16.572 19.272 18.252Z" fill="#631F6A"/>
</svg>
