<svg width="25" height="24" viewBox="0 0 25 24" fill="none" xmlns="http://www.w3.org/2000/svg">
<path d="M8.75668 5.37797H11.2266V16.9098C11.2266 17.0598 11.3469 17.1825 11.494 17.1825H13.4993C13.6464 17.1825 13.7667 17.0598 13.7667 16.9098V5.37797H16.2433C16.4672 5.37797 16.5909 5.1155 16.4539 4.93824L12.7106 0.104631C12.6855 0.0720376 12.6536 0.0456777 12.6171 0.0275495C12.5806 0.00942119 12.5406 0 12.5 0C12.4594 0 12.4194 0.00942119 12.3829 0.0275495C12.3464 0.0456777 12.3144 0.0720376 12.2894 0.104631L8.54612 4.93484C8.40909 5.1155 8.53275 5.37797 8.75668 5.37797ZM24.7326 15.8872H22.7273C22.5802 15.8872 22.4599 16.0099 22.4599 16.1599V21.4093H2.54011V16.1599C2.54011 16.0099 2.41979 15.8872 2.27273 15.8872H0.26738C0.120321 15.8872 0 16.0099 0 16.1599V22.9092C0 23.5125 0.477941 24 1.06952 24H23.9305C24.5221 24 25 23.5125 25 22.9092V16.1599C25 16.0099 24.8797 15.8872 24.7326 15.8872Z" fill="white"/>
</svg>
